<svg width="275" height="216" viewBox="0 0 275 216" fill="none" xmlns="http://www.w3.org/2000/svg">
<path opacity="0.08" d="M56 163.329L56.0018 163.331C61.4644 170.94 68.6187 174.772 77.432 174.772C86.2453 174.772 93.3996 170.94 98.8622 163.331L98.864 163.329C102.19 158.633 104.655 151.613 106.292 142.319C107.931 133.016 108.748 121.392 108.748 107.456C108.748 93.7109 107.931 82.2312 106.292 73.0242C104.655 63.8264 102.19 56.8558 98.8656 52.161C93.5918 44.5446 86.4332 40.7158 77.432 40.7158C68.4301 40.7158 61.2711 44.5452 55.9972 52.1628C52.6738 56.9525 50.2091 64.0181 48.5716 73.3131C46.9328 82.6156 46.116 94.1909 46.116 108.032C46.116 121.777 46.9328 133.256 48.5717 142.463C50.2093 151.663 52.6745 158.634 56 163.329ZM187.064 32.6383L274.192 1.03308V211.5H229.4V58.4958V57.784L228.73 58.0254L187.064 73.048V32.6383ZM134.627 186.65C120.903 205.329 101.858 214.668 77.432 214.668C53.0062 214.668 33.9605 205.329 20.2365 186.65C7.65487 169.302 1.32401 143.027 1.32401 107.744C1.32401 72.4607 7.65465 46.1862 20.2359 28.8386C33.96 10.1594 53.0059 0.819824 77.432 0.819824C101.858 0.819824 120.904 10.1592 134.628 28.8381C147.209 46.1858 153.54 72.4605 153.54 107.744C153.54 143.028 147.209 169.303 134.627 186.65Z" stroke="#191B21"/>
</svg>
