<svg width="322" height="216" viewBox="0 0 322 216" fill="none" xmlns="http://www.w3.org/2000/svg">
<path opacity="0.08" d="M55.9999 163.328L56.0018 163.331C61.4643 170.939 68.6186 174.771 77.4319 174.771C86.2452 174.771 93.3995 170.939 98.8621 163.331L98.8639 163.328C102.19 158.632 104.655 151.612 106.292 142.318C107.931 133.015 108.748 121.392 108.748 107.455C108.748 93.7101 107.931 82.2305 106.292 73.0235C104.655 63.8257 102.19 56.8551 98.8655 52.1602C93.5917 44.5438 86.4331 40.7151 77.4319 40.7151C68.43 40.7151 61.271 44.5444 55.9971 52.162C52.6737 56.9517 50.209 64.0173 48.5715 73.3123C46.9327 82.6149 46.1159 94.1902 46.1159 108.031C46.1159 121.776 46.9327 133.256 48.5717 142.463C50.2092 151.662 52.6744 158.633 55.9999 163.328ZM236.786 127.629L236.788 127.627C248.31 112.263 256.391 100.433 261.016 92.1468C265.654 83.8377 267.992 75.978 267.992 68.5751C267.992 59.8135 265.065 52.9435 259.175 48.0336C253.493 43.1373 245.879 40.7151 236.388 40.7151C220.205 40.7151 204.145 46.802 188.216 58.9212V17.2804C203.629 6.30684 221.121 0.819092 240.708 0.819092C261.535 0.819092 278.789 6.73951 292.509 18.554L292.515 18.5588C306.411 30.1703 313.36 45.4825 313.36 64.5431C313.36 75.5963 310.692 86.8525 305.343 98.3156L305.341 98.319C300.177 109.603 291.944 122.819 280.627 137.972L255.573 171.089L255.386 171.337L255.524 171.615L255.812 172.191L255.951 172.467H256.26H320.848V211.499H173.337L173.326 211.477L236.786 127.629ZM134.627 186.65C120.903 205.328 101.858 214.667 77.4319 214.667C53.0061 214.667 33.9604 205.328 20.2364 186.649C7.65478 169.301 1.32391 143.027 1.32391 107.743C1.32391 72.46 7.65456 46.1855 20.2358 28.8378C33.9599 10.1586 53.0058 0.819092 77.4319 0.819092C101.858 0.819092 120.904 10.1585 134.628 28.8374C147.209 46.1851 153.54 72.4598 153.54 107.743C153.54 143.027 147.209 169.302 134.627 186.65Z" stroke="#191B21"/>
</svg>
