<svg width="318" height="216" viewBox="0 0 318 216" fill="none" xmlns="http://www.w3.org/2000/svg">
<path opacity="0.08" d="M56 163.329L56.0018 163.331C61.4644 170.94 68.6187 174.772 77.432 174.772C86.2453 174.772 93.3996 170.94 98.8622 163.331L98.864 163.329C102.19 158.633 104.655 151.613 106.292 142.319C107.931 133.016 108.748 121.392 108.748 107.456C108.748 93.7109 107.931 82.2312 106.292 73.0242C104.655 63.8264 102.19 56.8558 98.8655 52.161C93.5917 44.5446 86.4332 40.7158 77.432 40.7158C68.4301 40.7158 61.2711 44.5452 55.9972 52.1628C52.6737 56.9525 50.209 64.0181 48.5716 73.3131C46.9328 82.6156 46.116 94.1909 46.116 108.032C46.116 121.777 46.9328 133.256 48.5717 142.463C50.2093 151.663 52.6744 158.634 56 163.329ZM236.1 124.812H215.864V91.2518H234.948C245.947 91.2518 254.334 89.0346 260.026 84.5196L260.035 84.513C265.725 79.8034 268.568 73.5141 268.568 65.6958C268.568 57.6848 265.628 51.3885 259.735 46.8692C254.054 42.3652 246.446 40.1398 236.964 40.1398C223.271 40.1398 209.132 44.0676 194.552 51.8967V12.1221C207.084 4.59601 222.366 0.819824 240.42 0.819824C261.448 0.819824 278.803 6.36175 292.522 17.4132L292.528 17.4179C306.433 28.2756 313.36 41.8629 313.36 58.2078C313.36 68.2862 310.604 77.4042 305.094 85.5755C299.585 93.5525 292.179 99.3453 282.863 102.958L282.544 103.081V103.424V104V104.358L282.883 104.473C294.118 108.282 302.662 114.65 308.546 123.571L308.549 123.575C314.443 132.321 317.392 142.207 317.392 153.248C317.392 171.331 310.169 186.068 295.694 197.495C281.204 208.935 263.27 214.668 241.86 214.668C217.661 214.668 197.775 209.358 182.168 198.775V155.865C203.597 168.831 222.731 175.348 239.556 175.348C249.608 175.348 257.599 173.125 263.474 168.622C269.559 164.106 272.6 157.809 272.6 149.792C272.6 141.49 269.537 135.204 263.381 131.018C257.26 126.856 248.141 124.812 236.1 124.812ZM134.627 186.65C120.903 205.329 101.858 214.668 77.432 214.668C53.0062 214.668 33.9604 205.329 20.2364 186.65C7.65484 169.302 1.32397 143.027 1.32397 107.744C1.32397 72.4607 7.65462 46.1862 20.2359 28.8386C33.9599 10.1594 53.0058 0.819824 77.432 0.819824C101.858 0.819824 120.904 10.1592 134.628 28.8381C147.209 46.1858 153.54 72.4605 153.54 107.744C153.54 143.028 147.209 169.303 134.627 186.65Z" stroke="#191B21"/>
</svg>
